<?xml version="1.0" encoding="iso-8859-1"?>
<!-- Generator: Adobe Illustrator 19.0.0, SVG Export Plug-In . SVG Version: 6.00 Build 0)  -->
<svg version="1.1" id="Capa_1" xmlns="http://www.w3.org/2000/svg" xmlns:xlink="http://www.w3.org/1999/xlink" x="0px" y="0px"
	 viewBox="0 0 512 512" style="enable-background:new 0 0 512 512;" xml:space="preserve">
<g>
	<g>
		<path d="M75.12,399.76c-1.86-1.86-4.44-2.93-7.07-2.93s-5.21,1.07-7.07,2.93c-1.859,1.86-2.93,4.44-2.93,7.07s1.07,5.21,2.93,7.07
			c1.86,1.86,4.44,2.93,7.07,2.93s5.21-1.06,7.07-2.93c1.859-1.86,2.93-4.44,2.93-7.07S76.98,401.62,75.12,399.76z"/>
	</g>
</g>
<g>
	<g>
		<path d="M502,356.014h-44.834L437.5,317.79c-2.527-4.911-8.556-6.843-13.468-4.317c-4.911,2.527-6.844,8.556-4.317,13.467
			l14.958,29.073h-64.366l14.958-29.073c2.526-4.911,0.594-10.94-4.317-13.467c-4.91-2.528-10.939-0.595-13.468,4.317
			l-19.666,38.224h-0.055c0.535-3.026-0.315-6.255-2.598-8.649c-7.673-8.046-17.313-14.15-27.879-17.651l-74.998-24.853
			c21.561-16.05,35.554-41.726,35.554-70.61v-47.179c0-48.512-39.467-87.979-87.979-87.979h-11.696
			c-48.512,0-87.979,39.467-87.979,87.979v47.179c0,28.335,13.468,53.58,34.335,69.681l-77.8,25.781
			C18.774,338.973,0,364.973,0,394.411V502c0,5.523,4.478,10,10,10h458.5c23.986,0,43.5-19.514,43.5-43.5V366.014
			C512,360.491,507.522,356.014,502,356.014z M110.184,187.072c0-37.484,30.495-67.979,67.978-67.979h11.696
			c37.483,0,67.979,30.495,67.979,67.979v2.953c-9.009,3.958-18.838,6.039-28.749,6.039c-22.277,0-42.885-10.14-56.537-27.82
			c-1.894-2.452-4.816-3.888-7.915-3.888s-6.021,1.436-7.915,3.888c-11.582,14.999-28.171,24.567-46.537,27.126V187.072z
			 M110.184,234.25v-18.742c20.68-2.236,39.75-11.356,54.452-26.044c17.047,17.03,39.959,26.599,64.452,26.599
			c9.786,0,19.513-1.591,28.749-4.643v22.831c0,37.483-30.495,67.979-67.979,67.979h-11.696
			C140.679,302.229,110.184,271.734,110.184,234.25z M145.071,315.763c10.221,4.165,21.391,6.466,33.091,6.466h11.696
			c10.725,0,21.006-1.932,30.518-5.461c0.585,0.785,1.285,1.488,2.091,2.079v14.825c0,21.338-17.36,38.698-38.698,38.698
			c-21.338,0-38.698-17.36-38.698-38.698V315.763z M299.902,492H78.05v-38c0-5.523-4.478-10-10-10c-5.522,0-10,4.477-10,10v38H20
			v-97.589c0-20.8,13.266-39.171,33.01-45.714l72.061-23.879v8.854c0,32.366,26.332,58.698,58.698,58.698
			c32.366,0,58.698-26.332,58.698-58.698v-7.682l68.523,22.707c4.998,1.656,9.69,4.153,13.88,7.316h-21.891c-5.522,0-10,4.477-10,10
			V468.5C292.979,477.153,295.529,485.217,299.902,492z M492,468.5c0,12.958-10.542,23.5-23.5,23.5H354h-17.521
			c-12.958,0-23.5-10.542-23.5-23.5v-92.486h24.544l-1.755,3.411c-2.526,4.911-0.594,10.94,4.317,13.467
			c1.464,0.753,3.026,1.11,4.567,1.11c3.626,0,7.126-1.98,8.9-5.427l6.463-12.562h84.946l6.463,12.562
			c1.774,3.447,5.273,5.427,8.9,5.427c1.54,0,3.104-0.357,4.567-1.11c4.911-2.527,6.844-8.556,4.317-13.467l-1.755-3.411H492V468.5z
			"/>
	</g>
</g>
<g>
	<g>
		<path d="M402.49,73.618c-6.617,0-12-4.471-12-9.966c0-5.496,5.383-9.966,12-9.966s12,4.471,12,9.966c0,5.523,4.478,10,10,10
			c5.522,0,10-4.477,10-10c0-13.257-9.244-24.523-22.01-28.463c-0.103-5.434-4.532-9.809-9.99-9.809
			c-5.458,0-9.888,4.375-9.99,9.809c-12.766,3.94-22.01,15.206-22.01,28.463c0,16.523,14.355,29.966,32,29.966
			c6.617,0,12,4.471,12,9.966s-5.383,9.966-12,9.966s-12-4.471-12-9.966c0-5.523-4.478-10-10-10c-5.522,0-10,4.477-10,10
			c0,13.261,9.25,24.53,22.021,28.466c0.227,5.322,4.601,9.57,9.979,9.57s9.751-4.248,9.979-9.57
			c12.771-3.936,22.021-15.205,22.021-28.466C434.49,87.061,420.135,73.618,402.49,73.618z"/>
	</g>
</g>
<g>
	<g>
		<path d="M402.49,0c-46.317,0-84,37.682-84,84s37.683,84,84,84c46.317,0,84-37.682,84-84S448.807,0,402.49,0z M402.49,148
			c-35.29,0-64-28.71-64-64s28.71-64,64-64c35.29,0,64,28.71,64,64S437.78,148,402.49,148z"/>
	</g>
</g>
<g>
	<g>
		<path d="M402.49,196.063c-5.522,0-10,4.477-10,10v44.543c0,5.523,4.478,10,10,10c5.522,0,10-4.477,10-10v-44.543
			C412.49,200.54,408.012,196.063,402.49,196.063z"/>
	</g>
</g>
<g>
	<g>
		<path d="M409.559,280.99c-1.859-1.86-4.439-2.93-7.069-2.93c-2.631,0-5.211,1.07-7.07,2.93c-1.86,1.87-2.93,4.44-2.93,7.07
			s1.069,5.21,2.93,7.07c1.859,1.87,4.439,2.93,7.07,2.93c2.63,0,5.21-1.06,7.069-2.93c1.86-1.86,2.931-4.43,2.931-7.07
			C412.49,285.43,411.42,282.85,409.559,280.99z"/>
	</g>
</g>
<g>
	<g>
		<path d="M355,417c-5.522,0-10,4.477-10,10v27.417c0,5.523,4.478,10,10,10c5.522,0,10-4.477,10-10V427
			C365,421.477,360.522,417,355,417z"/>
	</g>
</g>
<g>
	<g>
		<path d="M402.49,417c-5.522,0-10,4.477-10,10v27.417c0,5.523,4.478,10,10,10c5.522,0,10-4.477,10-10V427
			C412.49,421.477,408.013,417,402.49,417z"/>
	</g>
</g>
<g>
	<g>
		<path d="M449.979,417c-5.522,0-10,4.477-10,10v27.417c0,5.523,4.478,10,10,10c5.522,0,10-4.477,10-10V427
			C459.979,421.477,455.502,417,449.979,417z"/>
	</g>
</g>
<g>
</g>
<g>
</g>
<g>
</g>
<g>
</g>
<g>
</g>
<g>
</g>
<g>
</g>
<g>
</g>
<g>
</g>
<g>
</g>
<g>
</g>
<g>
</g>
<g>
</g>
<g>
</g>
<g>
</g>
</svg>
