<?xml version="1.0" encoding="iso-8859-1"?>
<!-- Generator: Adobe Illustrator 19.0.0, SVG Export Plug-In . SVG Version: 6.00 Build 0)  -->
<svg version="1.1" id="Capa_1" xmlns="http://www.w3.org/2000/svg" xmlns:xlink="http://www.w3.org/1999/xlink" x="0px" y="0px"
	 viewBox="0 0 512 512" style="enable-background:new 0 0 512 512;" xml:space="preserve">
<g>
	<g>
		<path d="M500.142,281.932c-5.703-6.695-14.999-16.834-26.898-27.123c-5.046-4.363-10.133-8.375-15.244-12.046V94.998
			c0-5.523-4.477-10-10-10h-37V76.99c6.253-7.907,10-17.883,10-28.723V10c0-5.523-4.477-10-10-10h-72.8h-72.8h-72.8h-72.8H47
			c-5.523,0-10,4.477-10,10v38.267c0,10.84,3.747,20.816,10,28.723v8.008H10c-5.523,0-10,4.477-10,10V408c0,5.523,4.477,10,10,10
			h169.037v33.996h-39.024c-5.523,0-10,4.477-10,10V502c0,5.523,4.477,10,10,10h178.049c5.523,0,10-4.477,10-10v-40.004
			c0-5.523-4.477-10-10-10h-39.024V418H448c5.523,0,10-4.477,10-10v-49.288c5.582-3.99,10.686-8.07,15.231-11.988
			c11.985-10.329,21.254-20.451,26.92-27.122C512,305.65,512,303.454,512,300.673C512,297.875,512,295.853,500.142,281.932z
			 M411,104.998h27v125.246c-9.018-4.82-18.046-8.537-27-11.118V104.998z M348.2,20H401v28.267c0,14.557-11.843,26.4-26.4,26.4
			s-26.4-11.843-26.4-26.4V20z M275.4,20h52.8v28.267c0,14.557-11.843,26.4-26.4,26.4s-26.4-11.843-26.4-26.4V20z M202.6,20h52.8
			v28.267c0,14.557-11.843,26.4-26.4,26.4s-26.4-11.843-26.4-26.4V20z M129.8,20h52.8v28.267c0,14.557-11.843,26.4-26.4,26.4
			s-26.4-11.843-26.4-26.4V20z M119.8,76.991c8.505,10.755,21.655,17.676,36.4,17.676s27.895-6.921,36.4-17.676
			c8.505,10.755,21.655,17.676,36.4,17.676s27.895-6.921,36.4-17.677c8.505,10.755,21.655,17.677,36.4,17.677
			s27.895-6.921,36.4-17.676c8.505,10.755,21.655,17.676,36.4,17.676c5.772,0,11.297-1.068,16.4-3.003v123.592
			c-3.186-0.308-6.355-0.472-9.5-0.472c-37.614,0-70.646,21.664-91.732,39.838c-11.985,10.329-21.254,20.451-26.92,27.123
			C251,295.696,251,297.892,251,300.673c0,2.798,0,4.82,11.858,18.741c4.484,5.264,11.199,12.662,19.646,20.584H67V91.664
			c5.103,1.935,10.628,3.003,16.4,3.003C98.145,94.667,111.295,87.746,119.8,76.991z M57,20h52.8v28.267
			c0,14.557-11.843,26.4-26.4,26.4S57,62.824,57,48.267V20z M20,104.998h27v235H20V104.998z M308.061,471.996V492H150.012v-20.004
			H308.061z M199.037,451.996V418h60v33.996H199.037z M438,398H20v-38.002h36.768C56.846,360,56.922,360.01,57,360.01
			s0.154-0.01,0.232-0.012h249.754c24.927,17.442,50.377,26.564,74.514,26.564c20.616,0,39.85-6.514,56.5-15.388V398z
			 M381.5,366.562c-51.703,0-95.656-50.208-108.229-66.089c13.314-17.269,58.293-65.69,108.229-65.69
			c51.704,0,95.657,50.209,108.229,66.089C476.415,318.141,431.437,366.562,381.5,366.562z"/>
	</g>
</g>
<g>
	<g>
		<path d="M381.518,249.493c-28.211,0-51.163,22.952-51.163,51.163s22.952,51.162,51.163,51.162s51.163-22.951,51.163-51.162
			S409.729,249.493,381.518,249.493z M381.518,331.817c-17.183,0-31.163-13.979-31.163-31.162s13.979-31.163,31.163-31.163
			c17.184,0,31.163,13.979,31.163,31.163C412.68,317.838,398.701,331.817,381.518,331.817z"/>
	</g>
</g>
<g>
	<g>
		<path d="M388.57,293.6c-1.86-1.86-4.44-2.93-7.07-2.93s-5.21,1.07-7.07,2.93c-1.86,1.86-2.93,4.44-2.93,7.07
			c0,2.64,1.07,5.21,2.93,7.07s4.44,2.93,7.07,2.93s5.21-1.07,7.07-2.93c1.86-1.86,2.93-4.43,2.93-7.07
			C391.5,298.04,390.43,295.46,388.57,293.6z"/>
	</g>
</g>
<g>
	<g>
		<path d="M197,118.341h-96c-5.523,0-10,4.477-10,10v96c0,5.523,4.477,10,10,10h96c5.523,0,10-4.477,10-10v-96
			C207,122.818,202.523,118.341,197,118.341z M187,214.341h-76v-76h76V214.341z"/>
	</g>
</g>
<g>
	<g>
		<path d="M364.07,121.27c-1.86-1.86-4.44-2.93-7.07-2.93s-5.21,1.07-7.07,2.93c-1.86,1.86-2.93,4.44-2.93,7.07
			c0,2.63,1.07,5.21,2.93,7.07c1.86,1.86,4.44,2.93,7.07,2.93s5.21-1.07,7.07-2.93s2.93-4.44,2.93-7.07S365.93,123.13,364.07,121.27
			z"/>
	</g>
</g>
<g>
	<g>
		<path d="M315,118.341h-64c-5.523,0-10,4.477-10,10s4.477,10,10,10h64c5.523,0,10-4.477,10-10S320.523,118.341,315,118.341z"/>
	</g>
</g>
<g>
	<g>
		<path d="M357,158.341H251c-5.523,0-10,4.477-10,10s4.477,10,10,10h106c5.523,0,10-4.477,10-10S362.523,158.341,357,158.341z"/>
	</g>
</g>
<g>
	<g>
		<path d="M291.673,198.341H251c-5.523,0-10,4.477-10,10s4.477,10,10,10h40.673c5.523,0,10-4.477,10-10
			S297.196,198.341,291.673,198.341z"/>
	</g>
</g>
<g>
	<g>
		<path d="M207,302.341H101c-5.523,0-10,4.477-10,10s4.477,10,10,10h106c5.523,0,10-4.477,10-10S212.523,302.341,207,302.341z"/>
	</g>
</g>
<g>
	<g>
		<path d="M108.07,265.27c-1.86-1.86-4.44-2.93-7.07-2.93s-5.21,1.07-7.07,2.93S91,269.71,91,272.34s1.07,5.21,2.93,7.07
			s4.44,2.93,7.07,2.93s5.21-1.07,7.07-2.93s2.93-4.43,2.93-7.07C111,269.71,109.93,267.13,108.07,265.27z"/>
	</g>
</g>
<g>
	<g>
		<path d="M207,262.341h-66.054c-5.523,0-10,4.477-10,10s4.477,10,10,10H207c5.523,0,10-4.477,10-10S212.523,262.341,207,262.341z"
			/>
	</g>
</g>
<g>
</g>
<g>
</g>
<g>
</g>
<g>
</g>
<g>
</g>
<g>
</g>
<g>
</g>
<g>
</g>
<g>
</g>
<g>
</g>
<g>
</g>
<g>
</g>
<g>
</g>
<g>
</g>
<g>
</g>
</svg>
