<?xml version="1.0" encoding="iso-8859-1"?>
<!-- Generator: Adobe Illustrator 19.0.0, SVG Export Plug-In . SVG Version: 6.00 Build 0)  -->
<svg version="1.1" id="Capa_1" xmlns="http://www.w3.org/2000/svg" xmlns:xlink="http://www.w3.org/1999/xlink" x="0px" y="0px"
	 viewBox="0 0 512 512" style="enable-background:new 0 0 512 512;" xml:space="preserve">
<g>
	<g>
		<path d="M265.664,494.931c-1.86-1.861-4.44-2.93-7.07-2.93c-2.63,0-5.21,1.069-7.07,2.93c-1.86,1.86-2.93,4.44-2.93,7.07
			s1.07,5.21,2.93,7.069c1.86,1.86,4.43,2.931,7.07,2.931c2.63,0,5.21-1.07,7.07-2.931c1.86-1.859,2.93-4.439,2.93-7.069
			C268.594,499.37,267.524,496.79,265.664,494.931z"/>
	</g>
</g>
<g>
	<g>
		<path d="M143.927,374.004c-5.523,0-10,4.477-10,10v63.998c0,5.522,4.477,10,10,10s10-4.478,10-10v-63.998
			C153.927,378.482,149.45,374.004,143.927,374.004z"/>
	</g>
</g>
<g>
	<g>
		<path d="M199.926,374.004c-5.523,0-10,4.477-10,10v63.998c0,5.522,4.477,10,10,10s10-4.478,10-10v-63.998
			C209.925,378.482,205.448,374.004,199.926,374.004z"/>
	</g>
</g>
<g>
	<g>
		<path d="M255.924,374.004c-5.523,0-10,4.478-10,10v63.998c0,5.522,4.477,10,10,10c5.523,0,10-4.478,10-10v-63.998
			C265.924,378.482,261.447,374.004,255.924,374.004z"/>
	</g>
</g>
<g>
	<g>
		<path d="M311.922,374.004c-5.523,0-10,4.478-10,10v63.998c0,5.522,4.477,10,10,10s10-4.478,10-10v-63.998
			C321.922,378.482,317.445,374.004,311.922,374.004z"/>
	</g>
</g>
<g>
	<g>
		<path d="M367.921,374.004c-5.523,0-10,4.478-10,10v63.998c0,5.522,4.477,10,10,10c5.523,0,10-4.478,10-10v-63.998
			C377.921,378.482,373.444,374.004,367.921,374.004z"/>
	</g>
</g>
<g>
	<g>
		<path d="M482.797,43.085c1.418-3.582,2.205-7.479,2.205-11.559c0-17.377-14.138-31.514-31.514-31.514
			c-8.312,0-15.878,3.24-21.514,8.517c-5.637-5.277-13.203-8.517-21.515-8.517c-17.377,0-31.514,14.138-31.514,31.514
			c0,4.244,0.848,8.292,2.376,11.991c-14.412,2.541-25.398,15.145-25.398,30.273v89.468c0,16.956,13.794,30.749,30.749,30.749
			h94.497c16.956,0,30.749-13.794,30.749-30.749V73.79C511.917,57.381,498.997,43.935,482.797,43.085z M441.973,31.526
			c0-6.35,5.166-11.515,11.515-11.515c6.35,0,11.515,5.166,11.515,11.515s-5.165,11.515-11.515,11.515h-11.515V31.526z
			 M410.458,20.011c6.35,0,11.516,5.166,11.516,11.515v11.515h-11.516c-6.35,0-11.515-5.166-11.515-11.515
			S404.109,20.011,410.458,20.011z M491.918,163.258c0,5.927-4.822,10.75-10.75,10.75H386.67c-5.928,0-10.75-4.822-10.75-10.75
			v-49.249h115.997V163.258z M491.918,94.009H375.921V73.79c0-5.928,4.822-10.75,10.75-10.75h94.497
			c5.928,0,10.75,4.822,10.75,10.75V94.009z"/>
	</g>
</g>
<g>
	<g>
		<path d="M188.547,5.234c-3.352-3.355-7.81-5.205-12.557-5.208l-61.205-0.013c-0.003,0-0.006,0-0.009,0
			c-4.743,0-9.201,1.847-12.556,5.2L5.285,102.129c-3.354,3.354-5.202,7.813-5.202,12.557c0,4.743,1.847,9.202,5.201,12.557
			l61.17,61.17c3.462,3.462,8.009,5.192,12.557,5.192c4.546,0,9.094-1.731,12.555-5.192l96.94-96.94
			c3.352-3.352,5.198-7.808,5.201-12.547l0.034-61.132C193.744,13.051,191.899,8.59,188.547,5.234z M173.707,77.988L79.01,172.685
			l-57.998-57.999l94.692-94.672l58.035,0.013L173.707,77.988z"/>
	</g>
</g>
<g>
	<g>
		<path d="M255.783,46.822c-5.875,0-10.655-3.923-10.655-8.745c0-4.822,4.78-8.746,10.655-8.746c5.875,0,10.655,3.923,10.655,8.746
			c0,5.523,4.477,10,10,10c5.523,0,10-4.477,10-10c0-12.568-8.648-23.269-20.654-27.166V10c0-5.523-4.477-10-10-10
			c-5.523,0-10,4.477-10,10v0.912c-12.006,3.897-20.654,14.599-20.654,27.166c0,15.85,13.751,28.744,30.654,28.744
			c5.875,0,10.655,3.923,10.655,8.746s-4.78,8.744-10.655,8.744c-5.875,0-10.655-3.923-10.655-8.745c0-5.523-4.477-10-10-10
			c-5.523,0-10,4.477-10,10c0,12.567,8.648,23.268,20.654,27.165v4.659c0,5.523,4.477,10,10,10c5.523,0,10-4.477,10-10v-4.659
			c12.006-3.897,20.654-14.599,20.654-27.165C286.437,59.716,272.687,46.822,255.783,46.822z"/>
	</g>
</g>
<g>
	<g>
		<path d="M148.379,84.88c-0.96-5.439-6.15-9.069-11.585-8.111L76.523,87.404c-5.438,0.959-9.07,6.146-8.11,11.585
			c0.856,4.851,5.075,8.264,9.836,8.264c0.577,0,1.162-0.05,1.749-0.154l60.27-10.634C145.707,95.505,149.338,90.319,148.379,84.88z
			"/>
	</g>
</g>
<g>
	<g>
		<path d="M130.497,49.753c-1.86-1.86-4.44-2.93-7.07-2.93c-2.63,0-5.21,1.07-7.07,2.93c-1.86,1.86-2.93,4.44-2.93,7.07
			s1.07,5.21,2.93,7.07c1.86,1.859,4.44,2.93,7.07,2.93c2.63,0,5.21-1.07,7.07-2.93c1.86-1.86,2.93-4.44,2.93-7.07
			S132.357,51.613,130.497,49.753z"/>
	</g>
</g>
<g>
	<g>
		<path d="M100.438,117.941c-1.86-1.861-4.44-2.93-7.07-2.93c-2.63,0-5.21,1.07-7.07,2.93c-1.86,1.86-2.93,4.44-2.93,7.07
			c0,2.63,1.07,5.21,2.93,7.07c1.86,1.86,4.44,2.93,7.07,2.93c2.63,0,5.21-1.07,7.07-2.93c1.86-1.86,2.93-4.44,2.93-7.07
			C103.368,122.381,102.298,119.801,100.438,117.941z"/>
	</g>
</g>
<g>
	<g>
		<path d="M169.926,130.045c-5.523,0-10,4.477-10,10v68.21c0,5.523,4.477,10,10,10c5.523,0,10-4.477,10-10v-68.21
			C179.926,134.522,175.449,130.045,169.926,130.045z"/>
	</g>
</g>
<g>
	<g>
		<path d="M262.994,167.078c-1.86-1.86-4.44-2.93-7.07-2.93c-2.63,0-5.21,1.07-7.07,2.93c-1.86,1.86-2.93,4.44-2.93,7.07
			s1.07,5.21,2.93,7.07c1.86,1.86,4.44,2.93,7.07,2.93c2.63,0,5.21-1.07,7.07-2.93c1.86-1.86,2.93-4.44,2.93-7.07
			S264.854,168.938,262.994,167.078z"/>
	</g>
</g>
<g>
	<g>
		<path d="M93.37,206.113c-5.523,0-10,4.477-10,10s4.477,10,10,10c11.06,0,20.057,8.998,20.057,20.056c0,5.523,4.477,10,10,10
			c5.523,0,10-4.477,10-10C133.427,224.083,115.458,206.113,93.37,206.113z"/>
	</g>
</g>
<g>
	<g>
		<path d="M447.698,206.113c-35.14,0-63.992,27.359-66.42,61.893h-7.689c-0.299,0-0.593,0.019-0.885,0.045l-38.783-38.783
			c-5.289-5.288-12.32-8.201-19.798-8.201c-7.479,0-14.51,2.913-19.799,8.201c-5.288,5.289-8.201,12.32-8.201,19.798
			c0,7.082,2.616,13.76,7.383,18.94h-27.582v-59.488c0-5.523-4.477-10-10-10c-5.523,0-10,4.477-10,10v59.488h-27.301
			c5.128-5.259,7.952-12.18,7.952-19.537c0-7.479-2.913-14.51-8.201-19.798c-5.289-5.288-12.32-8.201-19.798-8.201
			c-7.479,0-14.51,2.913-19.798,8.201l-39.335,39.335H85.929c-5.523,0-10,4.478-10,10v156.996c0,42.457,34.541,76.998,76.998,76.998
			h61.331c5.523,0,10-4.478,10-10s-4.477-10-10-10h-61.331c-31.429,0-56.998-25.569-56.998-56.998v-82.998H415.92v82.998
			c0,31.429-25.569,56.998-56.998,56.998h-59.998c-5.523,0-10,4.478-10,10s4.477,10,10,10h59.998
			c42.457,0,76.998-34.541,76.998-76.998V278.005c0-5.522-4.477-10-10-10h-24.59c2.37-23.493,22.26-41.894,46.369-41.894
			c5.523,0,10-4.477,10-10C457.698,210.589,453.221,206.113,447.698,206.113z M308.466,243.41c1.511-1.511,3.52-2.343,5.656-2.343
			c2.137,0,4.146,0.832,5.656,2.343l47.306,47.306c1.511,1.511,2.343,3.52,2.343,5.656c0,2.136-0.832,4.146-2.343,5.656
			c-1.511,1.511-3.52,2.343-5.656,2.343c-2.136,0-4.146-0.832-5.656-2.343l-47.306-47.306c-1.511-1.511-2.343-3.52-2.343-5.656
			C306.123,246.93,306.955,244.921,308.466,243.41z M313.408,287.95c-0.108-0.016-0.207-0.036-0.057-0.057L313.408,287.95z
			 M145.019,290.716l47.902-47.903c1.511-1.511,3.52-2.343,5.656-2.343c2.136,0,4.146,0.832,5.656,2.343
			c1.511,1.511,2.343,3.52,2.343,5.656s-0.832,4.146-2.343,5.657l-47.902,47.903c-1.511,1.511-3.52,2.343-5.656,2.343
			c-2.136,0-4.146-0.832-5.656-2.343c-1.511-1.511-2.343-3.52-2.343-5.656C142.676,294.237,143.507,292.226,145.019,290.716z
			 M198.698,287.945l0.019-0.019C198.773,287.932,198.754,287.939,198.698,287.945z M139.248,268.202l-0.069,0.069
			C139.073,268.246,139.118,268.223,139.248,268.202z M415.92,288.006v43.999H95.928v-43.999h28.017
			c-0.833,2.674-1.27,5.486-1.27,8.366c0,7.479,2.913,14.51,8.201,19.799c5.289,5.288,12.32,8.2,19.798,8.2
			c7.479,0,14.51-2.912,19.798-8.2l28.163-28.164h113.286c0.911,0,1.346-0.005,1.529-0.013l28.177,28.177
			c5.289,5.288,12.32,8.2,19.798,8.2c7.479,0,14.51-2.912,19.798-8.2c5.288-5.289,8.201-12.32,8.201-19.799
			c0-2.88-0.436-5.693-1.27-8.366H415.92z"/>
	</g>
</g>
<g>
	<g>
		<path d="M325.922,131.164h-3.798c-5.523,0-10,4.477-10,10c0,5.523,4.477,10,10,10h3.798c5.523,0,10-4.477,10-10
			C335.922,135.641,331.445,131.164,325.922,131.164z"/>
	</g>
</g>
<g>
	<g>
		<path d="M303.308,108.328c-5.523,0-10,4.477-10,10v4.02c0,5.523,4.477,10,10,10c5.523,0,10-4.477,10-10v-4.02
			C313.307,112.805,308.831,108.328,303.308,108.328z"/>
	</g>
</g>
<g>
	<g>
		<path d="M284.491,131.164h-4.235c-5.523,0-10,4.477-10,10c0,5.523,4.477,10,10,10h4.235c5.523,0,10-4.477,10-10
			C294.491,135.641,290.014,131.164,284.491,131.164z"/>
	</g>
</g>
<g>
	<g>
		<path d="M303.308,149.98c-5.523,0-10,4.477-10,10v3.015c0,5.523,4.477,10,10,10c5.523,0,10-4.477,10-10v-3.015
			C313.307,154.457,308.831,149.98,303.308,149.98z"/>
	</g>
</g>
<g>
</g>
<g>
</g>
<g>
</g>
<g>
</g>
<g>
</g>
<g>
</g>
<g>
</g>
<g>
</g>
<g>
</g>
<g>
</g>
<g>
</g>
<g>
</g>
<g>
</g>
<g>
</g>
<g>
</g>
</svg>
