<?xml version="1.0" encoding="utf-8"?>
<!-- Generator: Adobe Illustrator 22.1.0, SVG Export Plug-In . SVG Version: 6.00 Build 0)  -->
<svg version="1.2" baseProfile="tiny" id="Layer_1" xmlns="http://www.w3.org/2000/svg" xmlns:xlink="http://www.w3.org/1999/xlink"
	 x="0px" y="0px" viewBox="0 0 829 600" xml:space="preserve">
<g>
	<path fill="#888888" d="M391.289,393.814h-15.39V247.72c8.695-2.19,15.076-10.366,15.076-20.06V162.33
		c0-5.369-4.368-9.737-9.737-9.737H89.762c-5.369,0-9.737,4.368-9.737,9.737v65.331c0,9.694,6.381,17.869,15.076,20.06v146.094
		h-15.39c-2.602,0-4.711,2.109-4.711,4.711s2.109,4.711,4.711,4.711h311.577c2.602,0,4.711-2.109,4.711-4.711
		S393.891,393.814,391.289,393.814z M381.552,162.33v65.331c0,5.894-4.397,10.92-9.801,11.203c-2.887,0.148-5.615-0.854-7.698-2.83
		c-2.084-1.978-3.232-4.649-3.232-7.52v-66.498h20.416C381.411,162.016,381.552,162.157,381.552,162.33z M119.601,162.016h20.73
		v66.498c0,5.715-4.65,10.365-10.365,10.365c-5.715,0-10.365-4.65-10.365-10.365V162.016z M149.753,162.016h20.73v66.498
		c0,5.715-4.65,10.365-10.365,10.365c-5.715,0-10.365-4.65-10.365-10.365V162.016z M179.906,162.016h20.73v66.498
		c0,5.715-4.65,10.365-10.365,10.365c-5.715,0-10.365-4.65-10.365-10.365V162.016z M210.059,162.016h20.73v66.498
		c0,5.715-4.65,10.365-10.365,10.365c-5.715,0-10.365-4.65-10.365-10.365V162.016z M240.211,162.016h20.73v66.498
		c0,5.715-4.65,10.365-10.365,10.365s-10.365-4.65-10.365-10.365V162.016z M270.364,162.016h20.73v66.498
		c0,5.715-4.65,10.365-10.365,10.365s-10.365-4.65-10.365-10.365V162.016z M300.517,162.016h20.73v66.498
		c0,5.715-4.65,10.365-10.365,10.365c-5.715,0-10.365-4.65-10.365-10.365V162.016z M330.669,162.016h20.73v66.498
		c0,5.715-4.65,10.365-10.365,10.365s-10.365-4.65-10.365-10.365V162.016z M89.448,227.661V162.33c0-0.173,0.141-0.314,0.314-0.314
		h20.416v66.498c0,2.871-1.148,5.542-3.232,7.52c-2.082,1.976-4.814,2.979-7.698,2.83C93.845,238.581,89.448,233.555,89.448,227.661
		z M104.524,247.739c3.308-0.803,6.362-2.454,8.908-4.87c0.516-0.49,1.004-1.007,1.461-1.547c3.632,4.267,9.041,6.979,15.072,6.979
		c6.033,0,11.444-2.714,15.076-6.985c3.632,4.271,9.043,6.985,15.076,6.985c6.033,0,11.444-2.714,15.076-6.985
		c3.632,4.271,9.043,6.985,15.076,6.985c6.033,0,11.444-2.714,15.076-6.985c3.632,4.271,9.043,6.985,15.076,6.985
		c6.033,0,11.444-2.714,15.076-6.985c3.632,4.271,9.043,6.985,15.076,6.985s11.444-2.714,15.076-6.985
		c3.632,4.271,9.043,6.985,15.076,6.985c6.033,0,11.444-2.714,15.076-6.985c3.632,4.271,9.043,6.985,15.076,6.985
		c6.033,0,11.444-2.714,15.076-6.985c3.632,4.271,9.043,6.985,15.076,6.985c6.031,0,11.439-2.712,15.072-6.979
		c0.457,0.54,0.945,1.057,1.461,1.547c2.547,2.417,5.6,4.072,8.908,4.875v146.071h-20.73V282.94c0-5.369-4.368-9.737-9.737-9.737
		h-60.305c-5.369,0-9.737,4.368-9.737,9.737v110.874H104.524V247.739z M336.323,393.814h-60.933V282.94
		c0-0.173,0.141-0.314,0.314-0.314h60.305c0.173,0,0.314,0.141,0.314,0.314V393.814z"/>
	<path fill="#888888" d="M290.78,328.484c-2.602,0-4.711,2.109-4.711,4.711v10.051c0,2.602,2.109,4.711,4.711,4.711
		s4.711-2.109,4.711-4.711v-10.051C295.491,330.593,293.382,328.484,290.78,328.484z"/>
	<path fill="#888888" d="M239.897,273.204H130.594c-2.944,0-5.34,2.395-5.34,5.34v89.202c0,2.944,2.395,5.34,5.34,5.34h109.303
		c2.944,0,5.34-2.395,5.34-5.34v-89.202C245.237,275.599,242.842,273.204,239.897,273.204z M235.814,363.662H134.677v-81.035
		h101.137V363.662z"/>
</g>
<g>
	<path fill="#888888" d="M561.976,420.461h152.942c10.522,0,19.082-8.56,19.082-19.082V280.224c0-2.509-2.034-4.543-4.543-4.543
		H483.134l-9.416-18.309c-4.953-9.631-14.759-15.614-25.589-15.614h-19.138c-2.509,0-4.543,2.034-4.543,4.543
		s2.034,4.543,4.543,4.543h19.138c7.41,0,14.119,4.094,17.508,10.683l75.059,145.949c1.317,2.561,3.05,4.807,5.089,6.685
		l-27.075,36.101c-12.091,1.189-21.569,11.413-21.569,23.811c0,13.194,10.734,23.928,23.928,23.928
		c13.194,0,23.928-10.734,23.928-23.928c0-5.603-1.941-10.759-5.18-14.841h151.505c-3.238,4.082-5.18,9.238-5.18,14.841
		c0,13.194,10.734,23.928,23.928,23.928s23.928-10.734,23.928-23.928c0-13.194-10.734-23.928-23.928-23.928H530.156l23.405-31.207
		C556.204,419.925,559.043,420.461,561.976,420.461z M521.07,488.913c-8.183,0-14.841-6.658-14.841-14.842
		c0-8.182,6.655-14.838,14.836-14.841c0.001,0,0.001,0,0.002,0c0.002,0,0.003,0,0.005,0c8.183,0.001,14.84,6.658,14.84,14.841
		C535.911,482.255,529.253,488.913,521.07,488.913z M724.913,474.072c0,8.183-6.658,14.842-14.841,14.842
		s-14.841-6.658-14.841-14.842c0-8.183,6.658-14.841,14.841-14.841S724.913,465.888,724.913,474.072z M487.807,284.767h237.106
		v116.612c0,5.511-4.484,9.995-9.995,9.995H561.976c-5.586,0-10.643-3.086-13.199-8.054L487.807,284.767z"/>
	<path fill="#888888" d="M521.07,469.529c-1.193,0-2.369,0.485-3.211,1.333c-0.848,0.842-1.333,2.017-1.333,3.211
		c0,1.199,0.485,2.369,1.333,3.211c0.842,0.848,2.017,1.333,3.211,1.333c1.193,0,2.369-0.485,3.211-1.333
		c0.848-0.842,1.333-2.017,1.333-3.211c0-1.193-0.485-2.369-1.333-3.211C523.438,470.013,522.263,469.529,521.07,469.529z"/>
	<path fill="#888888" d="M706.861,470.861c-0.848,0.842-1.333,2.017-1.333,3.211c0,1.199,0.485,2.369,1.333,3.211
		c0.842,0.848,2.017,1.333,3.211,1.333s2.369-0.485,3.211-1.333c0.848-0.842,1.333-2.011,1.333-3.211
		c0-1.193-0.485-2.369-1.333-3.211c-0.842-0.848-2.017-1.333-3.211-1.333S707.703,470.013,706.861,470.861z"/>
	<path fill="#888888" d="M685.841,391.383c2.509,0,4.543-2.034,4.543-4.543v-77.539c0-2.509-2.034-4.543-4.543-4.543
		c-2.509,0-4.543,2.034-4.543,4.543v77.539C681.297,389.349,683.332,391.383,685.841,391.383z"/>
	<path fill="#888888" d="M656.764,391.383c2.509,0,4.543-2.034,4.543-4.543v-77.539c0-2.509-2.034-4.543-4.543-4.543
		c-2.509,0-4.543,2.034-4.543,4.543v77.539C652.22,389.349,654.254,391.383,656.764,391.383z"/>
	<path fill="#888888" d="M627.686,391.383c2.509,0,4.543-2.034,4.543-4.543v-77.539c0-2.509-2.034-4.543-4.543-4.543
		c-2.509,0-4.543,2.034-4.543,4.543v77.539C623.143,389.349,625.177,391.383,627.686,391.383z"/>
	<path fill="#888888" d="M598.609,391.383c2.509,0,4.543-2.034,4.543-4.543v-77.539c0-2.509-2.034-4.543-4.543-4.543
		c-2.509,0-4.543,2.034-4.543,4.543v77.539C594.066,389.349,596.1,391.383,598.609,391.383z"/>
	<path fill="#888888" d="M569.532,391.383c2.509,0,4.543-2.034,4.543-4.543v-77.539c0-2.509-2.034-4.543-4.543-4.543
		c-2.509,0-4.543,2.034-4.543,4.543v77.539C564.988,389.349,567.023,391.383,569.532,391.383z"/>
</g>
<g>
	<path fill="#4CE29E" d="M556.5,260.5c-2.762,0-5-2.239-5-5v-87c0-2.761,2.238-5,5-5s5,2.239,5,5v87
		C561.5,258.261,559.262,260.5,556.5,260.5z"/>
</g>
<g>
	<path fill="#4CE29E" d="M502.439,248.787c-1.834,0-3.6-1.013-4.476-2.765l-14.93-29.858c-1.235-2.47-0.234-5.474,2.235-6.708
		c2.471-1.235,5.473-0.233,6.708,2.236l14.93,29.858c1.235,2.47,0.234,5.474-2.235,6.708
		C503.954,248.617,503.19,248.787,502.439,248.787z"/>
</g>
<g>
	<path fill="#4CE29E" d="M603.684,251.917c-0.655,0-1.32-0.129-1.961-0.403c-2.54-1.084-3.72-4.022-2.636-6.562l14.99-35.119
		c1.084-2.54,4.024-3.719,6.562-2.636c2.54,1.084,3.72,4.022,2.636,6.562l-14.99,35.119
		C607.474,250.777,605.626,251.917,603.684,251.917z"/>
</g>
<g>
	<path fill="#4CE29E" d="M516.488,200.435c-8.933,0-16.199-7.266-16.199-16.197s7.267-16.197,16.199-16.197
		c8.932,0,16.197,7.266,16.197,16.197S525.42,200.435,516.488,200.435z M516.488,178.04c-3.418,0-6.199,2.78-6.199,6.197
		s2.781,6.197,6.199,6.197c3.417,0,6.197-2.78,6.197-6.197S519.905,178.04,516.488,178.04z"/>
</g>
<g>
	<path fill="#4CE29E" d="M597.049,194.272c-1.394,0-2.779-0.579-3.768-1.711c-0.032-0.035-0.063-0.07-0.095-0.106
		c-3.912-4.509-5.77-10.348-5.23-16.443c0.529-5.991,3.3-11.441,7.801-15.346c9.484-8.229,23.766-7.359,31.832,1.938l0.084,0.097
		l-7.557,6.549l-0.1-0.116c-4.359-5.021-12.476-5.453-17.707-0.916c-2.495,2.165-4.097,5.327-4.393,8.673
		c-0.296,3.341,0.688,6.515,2.771,8.948c0.055,0.06,0.101,0.113,0.138,0.156c1.809,2.086,1.583,5.244-0.504,7.053
		C599.376,193.871,598.21,194.272,597.049,194.272z M593.957,193.174c0.002,0.001,0.004,0.003,0.006,0.004
		C593.961,193.177,593.959,193.176,593.957,193.174z M593.951,193.17c0.001,0.001,0.003,0.002,0.004,0.003
		C593.954,193.172,593.952,193.171,593.951,193.17z M593.945,193.166C593.946,193.166,593.946,193.166,593.945,193.166
		C593.946,193.166,593.946,193.166,593.945,193.166z M593.299,192.581c0.062,0.068,0.172,0.183,0.322,0.317
		C593.509,192.797,593.401,192.691,593.299,192.581z"/>
</g>
<g>
	<path fill="#4CE29E" d="M714.461,229.646c-1.073,0-2.153-0.344-3.066-1.054l-58.118-45.218c-2.18-1.696-2.571-4.837-0.876-7.017
		c1.695-2.179,4.835-2.572,7.017-0.876l58.118,45.218c2.18,1.696,2.571,4.837,0.876,7.017
		C717.426,228.983,715.951,229.646,714.461,229.646z"/>
</g>
<g>
	<path fill="#4CE29E" d="M705.144,185.027c-3.979,0-8.013-0.941-11.768-2.927c-5.964-3.155-10.343-8.443-12.33-14.892
		c-1.987-6.449-1.344-13.285,1.812-19.25c3.154-5.964,8.443-10.344,14.893-12.331c6.448-1.987,13.285-1.343,19.249,1.812
		c12.312,6.512,17.029,21.827,10.518,34.14c0,0,0,0,0,0C722.989,180.137,714.21,185.027,705.144,185.027z M705.206,144.5
		c-1.51,0-3.028,0.227-4.513,0.684c-3.896,1.2-7.091,3.846-8.996,7.449c-1.906,3.604-2.295,7.734-1.095,11.63
		s3.846,7.091,7.449,8.997c7.435,3.934,16.689,1.083,20.625-6.356c3.935-7.438,1.084-16.691-6.354-20.625
		C710.093,145.099,707.66,144.5,705.206,144.5z M723.097,169.242h0.01H723.097z"/>
</g>
<g>
	<path fill="#4CE29E" d="M720.427,259.428c-0.198,0-0.398-0.012-0.601-0.036l-29.496-3.536c-2.742-0.329-4.698-2.818-4.37-5.56
		c0.329-2.741,2.809-4.701,5.56-4.369l29.496,3.536c2.742,0.329,4.698,2.818,4.37,5.56
		C725.081,257.562,722.923,259.428,720.427,259.428z"/>
</g>
<g>
	<path fill="#4CE29E" d="M659.209,248.278c-8.684,0-16.026-6.675-16.656-15.382c-0.008-0.085-0.014-0.164-0.019-0.234
		c-0.19-2.755,1.889-5.143,4.643-5.333c2.794-0.196,5.144,1.889,5.334,4.643l0.004,0.057c0.004,0.04,0.007,0.08,0.01,0.12
		c0.244,3.563,3.523,6.359,7.166,6.113c1.78-0.122,3.419-0.932,4.614-2.28c1.183-1.334,1.769-3.022,1.649-4.754
		c-0.002-0.03-0.004-0.06-0.005-0.089l-0.008-0.135h0.002c-0.001-0.039-0.001-0.079-0.001-0.118h2.025l7.956-0.462
		c0,0,0.002,0.051,0.005,0.12h0.002c0.304,4.428-1.167,8.715-4.144,12.072c-2.946,3.323-6.999,5.32-11.413,5.623
		C659.984,248.265,659.595,248.278,659.209,248.278z"/>
</g>
<g>
	<path fill="#4CE29E" d="M541,148.986c-0.739,0-1.486-0.049-2.238-0.149c-0.047-0.006-0.095-0.014-0.142-0.021
		c-2.703-0.417-4.596-2.935-4.211-5.648c0.389-2.728,2.899-4.625,5.614-4.253c0.029,0.004,0.061,0.009,0.093,0.014
		c3.802,0.492,7.463-2.44,7.996-6.417c0.531-3.983-2.243-7.782-6.059-8.291c-0.021-0.003-0.042-0.006-0.063-0.009
		c-2.726-0.392-4.66-2.92-4.277-5.649c0.383-2.731,2.871-4.642,5.601-4.263c0.014,0.002,0.037,0.005,0.063,0.009
		c9.347,1.248,15.917,10.008,14.647,19.529C556.85,142.593,549.449,148.986,541,148.986z"/>
</g>
</svg>
