<?xml version="1.0" encoding="utf-8"?>
<!-- Generator: Adobe Illustrator 22.1.0, SVG Export Plug-In . SVG Version: 6.00 Build 0)  -->
<svg version="1.2" baseProfile="tiny" id="Layer_1" xmlns="http://www.w3.org/2000/svg" xmlns:xlink="http://www.w3.org/1999/xlink"
	 x="0px" y="0px" viewBox="0 0 800 600" xml:space="preserve">
<path fill="#888888" d="M716.565,354.255l-86.891,3.975c-2.43,0.111-4.647,1.416-5.926,3.484
	c-6.484,10.499-20.627,14.83-31.349,16.614c-4.46,0.742-8.724,1.116-12.375,1.291c0.308-4.797-0.942-9.325-2.476-12.68
	c0.84-1.152,1.562-2.357,2.15-3.619c3.568-7.647,1.267-15.178-1.08-19.208c0.124-0.283,0.247-0.567,0.354-0.858
	c2.508-6.854-0.971-13.232-4.289-16.9l0.056-0.098c2.761-4.825,6.54-11.435,2.759-18.165c-4.638-8.254-18.193-11.506-51.801-12.427
	c-4.039-0.107-7.447,3.093-7.559,7.156c-0.111,4.063,3.093,7.447,7.155,7.559c27.781,0.762,36.212,3.307,38.746,4.665
	c-0.461,1.063-1.318,2.574-1.977,3.728c-1.028,0.626-5.919,2.815-24.291,3.086c-13.038,0.187-28.006-0.613-40.022-1.261
	c-5.162-0.278-9.621-0.519-13.216-0.642c-4.143-0.143-9.296-0.822-12.814-3.002c-0.255-0.333-0.535-0.652-0.855-0.946
	c-0.461-0.424-0.965-0.771-1.492-1.055c-0.048-0.059-0.104-0.112-0.15-0.172c-2.073-2.666-2.511-6.838-1.301-12.402
	c0.008-0.038,1.024-3.91,16.045-10.379c10.414-4.484,23.268-8.436,34.608-11.923c13.828-4.251,21.225-6.595,25.096-9.275
	c4.192-2.902,9.126-9.393,10.064-34.016c0.47-12.292-0.256-23.564-0.286-24.038c-0.045-0.673-0.186-1.354-0.411-1.988
	c-1.706-4.829-3.101-13.571-0.676-17.001c0.313-0.442,1.236-1.747,4.972-1.864c2.034,2.248,4.375,11.655,5.947,17.974
	c5.168,20.77,12.246,49.216,39.919,56.135c18.843,4.711,23.904,22.68,24.1,23.402c0.897,3.477,4.172,5.793,7.751,5.494l76.953-6.545
	c4.05-0.345,7.054-3.907,6.71-7.958c-0.346-4.05-3.896-7.055-7.958-6.71l-71.391,6.072c-3.735-8.382-12.92-23.117-32.595-28.037
	c-17.688-4.422-23.476-22.385-29.205-45.408c-3.729-14.989-7.253-29.148-19.684-29.148c-9.789,0-14.955,4.422-17.565,8.131
	c-6.971,9.908-2.905,24.981-1.497,29.363c1.358,22.135-0.803,40.837-3.659,44.126c-2.437,1.541-12.664,4.686-20.912,7.221
	c-33.559,10.317-57.559,18.741-60.712,33.245c-2.393,11.011-0.013,18.344,2.882,22.882c-0.316,0.557-0.629,1.143-0.93,1.761
	c-3.137,6.443-3.487,12.792-1.015,18.359c2.05,4.615,5.771,8.348,11.265,11.243c0.078,4.332,1.28,11.471,7.293,18.086
	c4.507,4.957,10.809,8.564,18.833,10.827c3.386,7.396,13.605,22.21,41.197,22.21c0.724,0,1.46-0.011,2.207-0.031
	c17.659-0.49,29.928-3.824,37.201-10.12c0.64,0.012,1.314,0.02,2.057,0.02c13.801,0,44.486-2.316,59.449-21.719l83.261-3.809
	c4.061-0.186,7.202-3.628,7.017-7.688C724.066,357.211,720.619,354.064,716.565,354.255z M496.957,335.296
	c14.85,0.8,27.282,1.296,37.574,1.296c11.896,0,20.92-0.666,27.486-2.292c0.359,0.534,0.789,1.034,1.302,1.477
	c0.758,0.686,1.601,1.897,1.766,2.508c-0.711,0.962-7.239,7.77-49.226,8.163c-41.098,0.348-47.126-8.383-47.922-10.145
	c-0.624-1.381-0.357-3.074,0.245-4.683c4.416,1.815,9.708,2.834,15.844,3.046C487.478,334.785,491.871,335.022,496.957,335.296z
	 M481.892,358.752c8.457,1.629,18.832,2.428,31.271,2.428c0.933,0,1.877-0.004,2.833-0.014c23.979-0.224,40.545-2.387,50.805-6.787
	c0.08,0.873-0.014,1.85-0.49,2.821c-1.147,2.337-7.366,10.169-39.217,12.822c-21.092,1.76-36.353-1.126-42.968-8.125
	C483.141,360.854,482.424,359.786,481.892,358.752z M534.86,389.873c-10.033,0.281-16.805-1.881-21.353-4.648
	c0.668,0.011,1.327,0.029,2.009,0.029c4.033,0,8.303-0.188,12.8-0.561c15.938-1.328,28.187-4.042,36.92-8.202
	c0.213,1.228,0.228,2.553-0.192,3.787c-1.747,0.828-3.13,2.328-3.791,4.195C557.447,386.889,549.887,389.456,534.86,389.873z"/>
<g>
	<path fill="#888888" d="M328.27,422h-0.009l-245.17-0.623c-1.599-0.003-3.13-0.765-4.258-1.897
		c-1.129-1.132-1.761-2.728-1.759-4.325l0.316-207.602c0.003-1.599,0.64-2.898,1.771-4.026c1.13-1.126,2.659-1.527,4.254-1.527
		c0,0,0.006,0,0.009,0l245.168,0.128c3.328,0.005,6.021,2.583,6.017,5.911l-0.315,207.506c-0.003,1.599-0.64,3.35-1.771,4.477
		C331.395,421.148,329.864,422,328.27,422z M89.134,409.086l233.12,0.354l0.296-195.518l-233.118-0.357L89.134,409.086z"/>
</g>
<path fill="#4CE29E" d="M302.845,278.45l-4.802-32.887c0.008-1.311-0.37-2.619-1.154-3.735c-1.445-2.057-3.953-3.074-6.433-2.622
	l-31.773,5.909c-3.489,0.65-5.792,4.011-5.143,7.5c0.648,3.487,3.992,5.803,7.493,5.156l17.948-3.312l-68.913,117.762
	l-44.755-85.964c-1.106-2.129-3.306-3.258-5.701-3.258c-0.023,0-0.048,0-0.072,0c-2.423,0-4.625,1.208-5.694,3.383l-22.965,46.489
	l-11.699-25.357c-1.488-3.223-5.306-4.643-8.528-3.156c-3.222,1.487-4.629,5.275-3.142,8.498l17.35,37.531
	c1.038,2.249,3.278,3.611,5.756,3.611c0.026,0,0.053,0,0.079,0c2.447,0,4.685-1.27,5.767-3.469l23.31-47.275l44.262,85.117
	c1.079,2.076,3.201,3.4,5.54,3.459c0.054,0.002,0.107,0.003,0.162,0.003c2.277-0.001,4.39-1.208,5.545-3.179l72.569-123.954
	l2.278,15.605c0.467,3.197,3.212,5.498,6.351,5.498c0.309,0,0.622-0.021,0.937-0.068
	C300.927,285.225,303.358,281.962,302.845,278.45z"/>
<g>
	<path fill="#4CE29E" d="M378.098,262c-0.017,0-0.032,0-0.049,0c-1.96,0-3.806-0.748-5.014-2.292l-13.818-17.583
		c-2.186-2.795-1.692-6.791,1.104-8.977c2.797-2.188,6.836-1.667,9.021,1.126l8.834,11.308l33.795-41.892
		c2.228-2.764,6.275-3.194,9.036-0.966c2.763,2.229,3.196,6.276,0.968,9.038l-38.875,48.02C381.879,261.296,380.04,262,378.098,262z
		"/>
</g>
<g>
	<path fill="#4CE29E" d="M378.098,333c-0.017,0-0.032,0-0.049,0c-1.96,0-3.806-0.903-5.014-2.447l-13.818-17.66
		c-2.186-2.796-1.692-6.83,1.104-9.017c2.797-2.188,6.836-1.689,9.021,1.106l8.834,11.298l33.795-41.897
		c2.228-2.762,6.275-3.194,9.036-0.967c2.763,2.229,3.196,6.274,0.968,9.036L383.1,330.627C381.879,332.141,380.04,333,378.098,333z
		"/>
</g>
<g>
	<path fill="#4CE29E" d="M378.098,404c-0.017,0-0.032,0-0.049,0c-1.96,0-3.806-1.059-5.014-2.603l-13.818-17.737
		c-2.186-2.797-1.692-6.869,1.104-9.056c2.797-2.188,6.836-1.708,9.021,1.087l8.834,11.288l33.795-41.901
		c2.228-2.764,6.275-3.198,9.036-0.971c2.763,2.229,3.196,6.273,0.968,9.035l-38.875,48.33C381.879,402.986,380.04,404,378.098,404z
		"/>
</g>
</svg>
