<?xml version="1.0" encoding="utf-8"?>
<!-- Generator: Adobe Illustrator 22.1.0, SVG Export Plug-In . SVG Version: 6.00 Build 0)  -->
<svg version="1.2" baseProfile="tiny" id="Layer_1" xmlns="http://www.w3.org/2000/svg" xmlns:xlink="http://www.w3.org/1999/xlink"
	 x="0px" y="0px" viewBox="0 0 800 600" xml:space="preserve">
<path fill="#4CE29E" d="M173.901,305.8c-6.054-4.899-13.161-7.597-18.901-9.076V276.05c3.68,1.307,6.817,2.914,8.495,3.941
	c3.582,2.211,8.282,1.106,10.501-2.475c2.22-3.584,1.113-8.289-2.47-10.508c-1.191-0.737-7.901-4.735-16.526-6.929V255
	c0-3.866-3.134-7-7-7s-7,3.134-7,7v3.788c-2.18,0.204-4.365,0.626-6.515,1.334c-5.523,1.817-13.045,6.325-17.507,17.481
	c-2.131,5.326-1.954,10.733,0.511,15.636c5.208,10.36,19.399,15.226,23.511,16.444v38.231c-1.758-0.522-3.512-1.174-5.243-1.957
	c-8.238-3.724-14.479-9.751-16.695-16.122c-1.383-3.98-5.731-6.088-9.717-4.701c-3.981,1.385-6.087,5.735-4.701,9.717
	c3.618,10.402,12.666,19.521,24.824,25.017c3.771,1.705,7.645,2.951,11.532,3.76V375c0,3.866,3.134,7,7,7s7-3.134,7-7v-10.418
	c4.582-0.346,9.025-1.348,13.164-3.033c9.833-4.007,16.688-13.052,18.336-24.197C188.266,325.411,183.557,313.616,173.901,305.8z
	 M131.125,286.373c-0.404-0.808-0.555-1.645,0.027-3.1c1.851-4.625,4.492-7.451,8.075-8.64c0.573-0.19,1.167-0.331,1.773-0.444
	v19.283C136.845,291.694,132.469,289.065,131.125,286.373z M171.398,335.119c-0.851,5.748-4.213,10.344-8.994,12.291
	c-2.324,0.947-4.815,1.559-7.404,1.854v-36.611c3.135,1.109,6.451,2.71,9.297,5.014
	C169.792,322.115,172.381,328.476,171.398,335.119z"/>
<path fill="#888888" d="M148.365,222.397c-50.422,0-91.442,41.021-91.442,91.444c0,50.421,41.02,91.441,91.442,91.441
	c50.423,0,91.445-41.021,91.445-91.441C239.811,263.418,198.788,222.397,148.365,222.397z M148.365,234.491
	c22.094,0,42.1,9.084,56.5,23.704L84.473,360.824c-9.705-13.163-15.456-29.412-15.456-46.983
	C69.017,270.087,104.612,234.491,148.365,234.491z M148.365,393.189c-21.84,0-41.645-8.87-56.007-23.195l120.313-102.56
	c9.452,13.061,15.046,29.089,15.046,46.408C227.717,357.593,192.12,393.189,148.365,393.189z"/>
<g>
	<g>
		<g>
			<path fill="#4CE29E" d="M591.836,394.266c-51.959,0-94.23-42.271-94.23-94.229c0-51.959,42.272-94.231,94.23-94.231
				c51.958,0,94.23,42.272,94.23,94.231C686.065,351.994,643.794,394.266,591.836,394.266z M591.836,223.473
				c-42.217,0-76.563,34.346-76.563,76.563c0,42.216,34.346,76.562,76.563,76.562c42.216,0,76.562-34.346,76.562-76.562
				C668.398,257.819,634.052,223.473,591.836,223.473z"/>
		</g>
	</g>
	<g>
		<g>
			<path fill="#4CE29E" d="M590.121,357.336c-20.359,0.001-37.937-10.705-48.15-29.801c-9.278-17.346-10.125-36.461-2.323-52.444
				c7.998-16.386,24.196-27.793,44.439-31.297c35.107-6.077,57.337,16.559,64.191,29.376c1.955,3.655,0.577,8.204-3.078,10.159
				c-3.656,1.955-8.204,0.577-10.158-3.079c-0.597-1.089-15.394-27.377-48.394-21.664c-15.438,2.672-27.651,11.088-33.51,23.091
				c-5.746,11.77-5.011,25.543,2.069,38.779c12.412,23.203,33.506,22.628,42,21.309c14.088-2.195,26.415-10.927,28.064-19.879
				c1.508-8.183-1.458-11.964-3.877-14.095c-0.557,1.886-1.305,3.708-2.246,5.427c-3.193,5.829-11.519,15.663-31.392,16.031
				c-10.343,0.195-18-5.56-19.561-14.651c-1.828-10.64,5.332-21.838,16.3-25.493c4.634-1.545,10.993-2.514,17.781-2.367
				c-1.909-1.767-4.669-3.356-8.428-3.276c-13.957,0.424-19.778,6.836-20.019,7.109l0.091-0.108l-11.633-9.488
				c0.99-1.214,10.28-11.885,31.107-12.517c9.784-0.288,18.936,4.846,24.399,13.758c1.593,2.599,2.794,5.385,3.597,8.251
				c3.551,1.463,6.873,3.405,9.76,5.915c5.538,4.814,11.574,13.619,8.884,28.224c-2.821,15.319-19.86,28.774-40.517,31.992
				C596.333,357.092,593.194,357.336,590.121,357.336z M600.351,301.648c-3.724,0-7.529,0.504-11.109,1.696
				c-4.719,1.573-6.691,6.149-6.252,8.711c0.116,0.676,0.405,2.253,4.488,2.183c9.249-0.171,15.648-3.019,18.505-8.234
				c0.64-1.168,1.093-2.444,1.36-3.78C605.102,301.856,602.744,301.648,600.351,301.648z"/>
		</g>
	</g>
</g>
<g>
	<g>
		<g>
			<path fill="#888888" d="M591.5,194.5c-2.485,0-4.5-2.015-4.5-4.5v-22c0-2.485,2.015-4.5,4.5-4.5s4.5,2.015,4.5,4.5v22
				C596,192.485,593.985,194.5,591.5,194.5z"/>
		</g>
		<g>
			<path fill="#888888" d="M591.5,435.5c-2.485,0-4.5-2.015-4.5-4.5v-21c0-2.485,2.015-4.5,4.5-4.5s4.5,2.015,4.5,4.5v21
				C596,433.485,593.985,435.5,591.5,435.5z"/>
		</g>
	</g>
	<g>
		<g>
			<path fill="#888888" d="M474,305h-22c-2.485,0-4.5-2.015-4.5-4.5s2.015-4.5,4.5-4.5h22c2.485,0,4.5,2.015,4.5,4.5
				S476.485,305,474,305z"/>
		</g>
		<g>
			<path fill="#888888" d="M732,305h-24c-2.485,0-4.5-2.015-4.5-4.5s2.015-4.5,4.5-4.5h24c2.485,0,4.5,2.015,4.5,4.5
				S734.485,305,732,305z"/>
		</g>
	</g>
	<g>
		<g>
			<path fill="#888888" d="M493.046,403.148c-1.131,0-2.261-0.432-3.123-1.294c-1.726-1.725-1.726-4.521,0-6.246l15.617-15.615
				c1.726-1.726,4.522-1.724,6.246,0c1.726,1.725,1.726,4.521,0,6.246l-15.617,15.615
				C495.307,402.717,494.176,403.148,493.046,403.148z"/>
		</g>
		<g>
			<path fill="#888888" d="M674.824,221.373c-1.131,0-2.261-0.431-3.123-1.293c-1.726-1.725-1.726-4.522,0-6.247l15.616-15.617
				c1.725-1.726,4.522-1.725,6.246,0c1.726,1.725,1.726,4.522,0,6.247l-15.616,15.617
				C677.085,220.942,675.955,221.373,674.824,221.373z"/>
		</g>
	</g>
	<g>
		<g>
			<path fill="#888888" d="M508.663,221.372c-1.131,0-2.261-0.431-3.123-1.294l-15.616-15.618c-1.726-1.725-1.726-4.521,0-6.247
				c1.725-1.726,4.522-1.725,6.246,0.001l15.616,15.618c1.726,1.725,1.726,4.521,0,6.247
				C510.924,220.941,509.793,221.372,508.663,221.372z"/>
		</g>
		<g>
			<path fill="#888888" d="M690.44,403.148c-1.131,0-2.261-0.431-3.123-1.294l-15.616-15.615c-1.726-1.725-1.726-4.521,0-6.246
				c1.725-1.725,4.522-1.727,6.246,0l15.616,15.615c1.726,1.725,1.726,4.522,0,6.246
				C692.701,402.717,691.571,403.148,690.44,403.148z"/>
		</g>
	</g>
	<g>
		<g>
			<path fill="#888888" d="M483.076,260.078c-0.585,0-1.179-0.117-1.75-0.363l-36.416-15.732c-2.239-0.967-3.271-3.567-2.303-5.806
				c0.967-2.24,3.567-3.271,5.807-2.303l36.416,15.732c2.239,0.967,3.27,3.567,2.303,5.807
				C486.412,259.081,484.785,260.078,483.076,260.078z"/>
		</g>
		<g>
			<path fill="#888888" d="M736.418,364.489c-0.567,0-1.145-0.11-1.701-0.343l-36.01-15.051c-2.251-0.94-3.313-3.527-2.372-5.778
				c0.94-2.25,3.526-3.312,5.778-2.372l36.01,15.051c2.251,0.94,3.314,3.527,2.372,5.778
				C739.787,363.469,738.146,364.489,736.418,364.489z"/>
		</g>
	</g>
	<g>
		<g>
			<path fill="#888888" d="M446.62,364.384c-1.758,0-3.42-1.057-4.106-2.79c-0.899-2.268,0.21-4.835,2.478-5.733l36.874-14.623
				c2.268-0.9,4.834,0.21,5.733,2.478c0.899,2.268-0.21,4.835-2.478,5.733l-36.874,14.623
				C447.713,364.283,447.162,364.384,446.62,364.384z"/>
		</g>
		<g>
			<path fill="#888888" d="M700.361,259.272c-1.738,0-3.387-1.033-4.088-2.741c-0.927-2.256,0.151-4.837,2.408-5.763l36.104-14.822
				c2.255-0.928,4.837,0.152,5.764,2.408c0.927,2.257-0.151,4.837-2.408,5.764l-36.104,14.822
				C701.488,259.165,700.92,259.272,700.361,259.272z"/>
		</g>
	</g>
	<g>
		<g>
			<path fill="#888888" d="M531.468,449.297c-0.585,0-1.179-0.116-1.75-0.363c-2.239-0.968-3.27-3.567-2.303-5.807l15.733-36.415
				c0.967-2.238,3.566-3.272,5.807-2.303c2.239,0.968,3.271,3.567,2.303,5.807l-15.732,36.415
				C534.804,448.299,533.177,449.297,531.468,449.297z"/>
		</g>
		<g>
			<path fill="#888888" d="M636.562,195.55c-0.567,0-1.145-0.11-1.701-0.342c-2.251-0.941-3.313-3.528-2.372-5.779l15.05-36.012
				c0.94-2.25,3.525-3.313,5.778-2.373c2.251,0.941,3.313,3.528,2.372,5.779l-15.05,36.012
				C639.931,194.53,638.29,195.55,636.562,195.55z"/>
		</g>
	</g>
	<g>
		<g>
			<path fill="#888888" d="M651.511,449.34c-1.758,0-3.419-1.056-4.106-2.789l-14.625-36.873c-0.899-2.268,0.209-4.835,2.477-5.734
				c2.267-0.9,4.834,0.208,5.734,2.477l14.625,36.873c0.899,2.267-0.209,4.835-2.477,5.734
				C652.604,449.239,652.053,449.34,651.511,449.34z"/>
		</g>
		<g>
			<path fill="#888888" d="M546.398,195.602c-1.738,0-3.387-1.033-4.088-2.741l-14.822-36.105c-0.927-2.256,0.151-4.837,2.408-5.763
				c2.256-0.929,4.837,0.152,5.764,2.409l14.822,36.105c0.927,2.256-0.151,4.837-2.408,5.763
				C547.525,195.495,546.957,195.602,546.398,195.602z"/>
		</g>
	</g>
</g>
<path fill="#888888" d="M408.107,312.365c0.149-2.438-0.698-4.926-2.561-6.789l-32.483-32.482c-3.449-3.45-9.042-3.45-12.493,0
	c-3.449,3.45-3.449,9.044,0.001,12.493L377.982,303H289c-4.694,0-8.5,3.806-8.5,8.5s3.806,8.5,8.5,8.5h90.716l-19.146,19.147
	c-3.449,3.45-3.449,9.044,0,12.494c1.726,1.725,3.986,2.587,6.247,2.587c2.261,0,4.521-0.862,6.247-2.587l32.483-32.483
	C407.41,317.293,408.258,314.805,408.107,312.365z"/>
<path fill="#888888" d="M308.819,268.999c-1.696,1.697-1.696,4.447,0,6.144c0.849,0.849,1.961,1.272,3.072,1.272
	c1.112,0,2.224-0.424,3.072-1.272l15.973-15.974c0.429-0.43,0.748-0.927,0.96-1.457c0.373-0.656,0.603-1.403,0.603-2.212
	c0-1.821-1.086-3.38-2.642-4.088l-14.895-14.896c-1.696-1.696-4.446-1.697-6.145,0c-1.696,1.696-1.696,4.447,0,6.144l8.34,8.34H273
	c-2.485,0-4.5,2.015-4.5,4.5c0,2.485,2.015,4.5,4.5,4.5h44.818L308.819,268.999z"/>
<path fill="#888888" d="M333.772,371.401l-12.339-12.339c-1.31-1.31-3.435-1.31-4.746,0c-1.31,1.31-1.31,3.435,0,4.746l7.191,7.191
	H290c-1.933,0-3.5,1.567-3.5,3.5s1.567,3.5,3.5,3.5h32.84l-6.153,6.152c-1.31,1.311-1.31,3.436,0,4.746
	c0.655,0.655,1.514,0.982,2.373,0.982c0.858,0,1.718-0.327,2.373-0.982l12.339-12.338c0.708-0.708,1.02-1.653,0.963-2.58
	C334.792,373.055,334.479,372.109,333.772,371.401z"/>
</svg>
